<?xml version="1.0" encoding="utf-8"?>
<!-- Generator: Adobe Illustrator 19.0.0, SVG Export Plug-In . SVG Version: 6.00 Build 0)  -->
<svg version="1.1" id="Layer_1" xmlns="http://www.w3.org/2000/svg" xmlns:xlink="http://www.w3.org/1999/xlink" x="0px" y="0px"
	 viewBox="-323.9 265 69.6 71.6" style="enable-background:new -323.9 265 69.6 71.6;" xml:space="preserve">
<style type="text/css">
	.st0{fill:#3D71D8;}
</style>
<g id="XMLID_82_">
	<path id="XMLID_83_" class="st0" d="M-254.9,333.8c0,0.6-0.4,1-1.2,1.2c-1,0.3-4,0.4-9,0.4c-4.7,0-7.6-0.1-9-0.4
		c-1.1-0.3-1.8-1-2.1-2.2c-1.1-4.7-1.9-7.2-2.6-7.5c-0.6-0.3-4.8-0.3-13-0.3c-5.5,0-8.4,0.1-8.8,0.4c-0.6,0.6-1.1,2.2-1.8,5.2
		c-0.6,2.6-1.4,4.1-2.2,4.4c-1.1,0.3-4.8,0.4-11.1,0.4c-5,0-7.5-0.4-7.5-1.4c0-0.8,3.6-11.2,10.9-31.1c7.9-21.4,12.3-33.3,13-35.4
		c0.4-1.2,0.8-1.8,1.4-1.8c0.8,0,2.2,0.1,4,0.3s3.2,0.3,4.1,0.3c0.8,0,2.2,0,3.9-0.1c1.7-0.1,2.9-0.1,3.9-0.1c0.6,0,1.2,0.6,1.7,1.7
		c1.5,3.5,6.2,15.1,14,35C-258.8,322.5-254.9,333-254.9,333.8z M-289.3,289.6c-0.7,1.4-1.8,4.6-3.5,9.3c-1.8,5.1-2.6,8-2.6,8.8
		c0,0.6,1,1,2.9,1c1,0,2.6,0.1,5,0.1c2.1,0,3.3-0.3,3.6-0.8c0-0.1,0.1-0.4,0.1-0.7c0-1.1-0.7-4-2.2-8.8
		C-287.5,293.9-288.6,290.9-289.3,289.6z"/>
</g>
</svg>
