<?xml version="1.0" encoding="utf-8"?>
<!-- Generator: Adobe Illustrator 19.0.0, SVG Export Plug-In . SVG Version: 6.00 Build 0)  -->
<svg version="1.1" id="Layer_1" xmlns="http://www.w3.org/2000/svg" xmlns:xlink="http://www.w3.org/1999/xlink" x="0px" y="0px"
	 viewBox="-323.8 265.2 152.9 71.5" style="enable-background:new -323.8 265.2 152.9 71.5;" xml:space="preserve">
<style type="text/css">
	.st0{fill:#FFFFFF;stroke:#3D71D8;stroke-miterlimit:10;}
	.st1{fill:#3D71D8;}
</style>
<path id="XMLID_3_" class="st0" d="M-183.7,336H-311c-6.6,0-12-5.4-12-12v-46c0-6.6,5.4-12,12-12h127.3c6.6,0,12,5.4,12,12v46
	C-171.7,330.6-177.1,336-183.7,336z"/>
<g id="XMLID_82_">
	<path id="XMLID_83_" class="st1" d="M-267.1,325.2c0,0.4-0.3,0.7-0.9,0.9c-0.7,0.2-2.9,0.3-6.5,0.3c-3.4,0-5.5-0.1-6.5-0.3
		c-0.8-0.2-1.3-0.7-1.5-1.6c-0.8-3.4-1.4-5.2-1.9-5.4c-0.4-0.2-3.5-0.2-9.4-0.2c-4,0-6.1,0.1-6.4,0.3c-0.4,0.4-0.8,1.6-1.3,3.8
		c-0.4,1.9-1,3-1.6,3.2c-0.8,0.2-3.5,0.3-8,0.3c-3.6,0-5.4-0.3-5.4-1c0-0.6,2.6-8.1,7.9-22.5c5.7-15.5,8.9-24.1,9.4-25.6
		c0.3-0.9,0.6-1.3,1-1.3c0.6,0,1.6,0.1,2.9,0.2c1.3,0.1,2.3,0.2,3,0.2c0.6,0,1.6,0,2.8-0.1s2.1-0.1,2.8-0.1c0.4,0,0.9,0.4,1.2,1.2
		c1.1,2.5,4.5,10.9,10.1,25.3C-269.9,317-267.1,324.6-267.1,325.2z M-292,293.2c-0.5,1-1.3,3.3-2.5,6.7c-1.3,3.7-1.9,5.8-1.9,6.4
		c0,0.4,0.7,0.7,2.1,0.7c0.7,0,1.9,0.1,3.6,0.1c1.5,0,2.4-0.2,2.6-0.6c0-0.1,0.1-0.3,0.1-0.5c0-0.8-0.5-2.9-1.6-6.4
		C-290.7,296.3-291.5,294.1-292,293.2z"/>
	<path id="XMLID_86_" class="st1" d="M-217.1,325.2c0,0.4-0.3,0.7-0.9,0.9c-0.7,0.2-2.9,0.3-6.5,0.3c-3.4,0-5.5-0.1-6.5-0.3
		c-0.8-0.2-1.3-0.7-1.5-1.6c-0.8-3.4-1.4-5.2-1.9-5.4c-0.4-0.2-3.5-0.2-9.4-0.2c-4,0-6.1,0.1-6.4,0.3c-0.4,0.4-0.8,1.6-1.3,3.8
		c-0.4,1.9-1,3-1.6,3.2c-0.8,0.2-3.5,0.3-8,0.3c-3.6,0-5.4-0.3-5.4-1c0-0.6,2.6-8.1,7.9-22.5c5.7-15.5,8.9-24.1,9.4-25.6
		c0.3-0.9,0.6-1.3,1-1.3c0.6,0,1.6,0.1,2.9,0.2s2.3,0.2,3,0.2c0.6,0,1.6,0,2.8-0.1c1.2-0.1,2.1-0.1,2.8-0.1c0.4,0,0.9,0.4,1.2,1.2
		c1.1,2.5,4.5,10.9,10.1,25.3C-219.9,317-217.1,324.6-217.1,325.2z M-242,293.2c-0.5,1-1.3,3.3-2.5,6.7c-1.3,3.7-1.9,5.8-1.9,6.4
		c0,0.4,0.7,0.7,2.1,0.7c0.7,0,1.9,0.1,3.6,0.1c1.5,0,2.4-0.2,2.6-0.6c0-0.1,0.1-0.3,0.1-0.5c0-0.8-0.5-2.9-1.6-6.4
		C-240.8,296.3-241.5,294.1-242,293.2z"/>
	<path id="XMLID_89_" class="st1" d="M-179.3,287.5c0,0.5-0.3,0.7-0.8,0.7c-0.9,0-4.4-0.2-10.6-0.5c-0.1,5.9-0.2,10.1-0.2,12.4
		c0,2.8,0.1,6.9,0.3,12.5c0.2,5.6,0.3,9.7,0.3,12.5c0,0.4-0.1,0.7-0.3,0.8c-0.1,0-0.4,0.1-1,0.2c-1.4,0.2-3.5,0.3-6.2,0.3
		c-3,0-5.1-0.1-6.4-0.3c-0.7-0.1-1-0.5-1-1.1c0-2.8,0.1-6.9,0.4-12.4c0.2-5.5,0.4-9.7,0.4-12.4c0-1.8-0.1-5.9-0.3-12.2
		c-4.7,0.5-8.4,0.7-11.2,0.7c-0.4,0-0.6-0.1-0.6-0.4s0.2-1.2,0.5-2.7c0.4-1.6,0.6-2.6,0.6-3c0.1-1.1,0.2-2.2,0.2-3.3
		c0.2-1.8,0.4-2.6,0.8-2.6c0,0,0.2,0,0.5,0c3.8,0.5,9.4,0.7,16.8,0.7c2.1,0,6-0.2,11.7-0.7c3-0.2,4.6-0.4,4.6-0.4
		c0.5,0,0.7,0,0.8,0.1s0.1,0.3,0.1,0.7c0,0.6,0,1.5-0.1,2.6c0,1.2-0.1,2.1-0.1,2.6c0,0.6,0.1,1.4,0.2,2.6
		C-179.4,286.1-179.3,287-179.3,287.5z"/>
</g>
</svg>
