<?xml version="1.0" encoding="utf-8"?>
<!-- Generator: Adobe Illustrator 19.0.0, SVG Export Plug-In . SVG Version: 6.00 Build 0)  -->
<svg version="1.1" id="Layer_1" xmlns="http://www.w3.org/2000/svg" xmlns:xlink="http://www.w3.org/1999/xlink" x="0px" y="0px"
	 viewBox="0 0 151.3 70" style="enable-background:new 0 0 151.3 70;" xml:space="preserve">
<style type="text/css">
	.st0{fill:#FFFFFF;stroke:#3D71D8;stroke-miterlimit:10;}
	.st1{fill:#3D71D8;}
</style>
<path id="XMLID_3_" class="st0" d="M139.3,70H12C5.4,70,0,64.6,0,58V12C0,5.4,5.4,0,12,0h127.3c6.6,0,12,5.4,12,12v46
	C151.3,64.6,145.9,70,139.3,70z"/>
<g id="XMLID_82_">
	<path id="XMLID_83_" class="st1" d="M55.9,59.2c0,0.4-0.3,0.7-0.9,0.9c-0.7,0.2-2.9,0.3-6.5,0.3c-3.4,0-5.5-0.1-6.5-0.3
		c-0.8-0.2-1.3-0.7-1.5-1.6c-0.8-3.4-1.4-5.2-1.9-5.4c-0.4-0.2-3.5-0.2-9.4-0.2c-4,0-6.1,0.1-6.4,0.3c-0.4,0.4-0.8,1.6-1.3,3.8
		c-0.4,1.9-1,3-1.6,3.2c-0.8,0.2-3.5,0.3-8,0.3c-3.6,0-5.4-0.3-5.4-1c0-0.6,2.6-8.1,7.9-22.5c5.7-15.5,8.9-24.1,9.4-25.6
		c0.3-0.9,0.6-1.3,1-1.3c0.6,0,1.6,0.1,2.9,0.2c1.3,0.1,2.3,0.2,3,0.2c0.6,0,1.6,0,2.8-0.1c1.2-0.1,2.1-0.1,2.8-0.1
		c0.4,0,0.9,0.4,1.2,1.2c1.1,2.5,4.5,10.9,10.1,25.3C53.1,51,55.9,58.6,55.9,59.2z M31,27.2c-0.5,1-1.3,3.3-2.5,6.7
		c-1.3,3.7-1.9,5.8-1.9,6.4c0,0.4,0.7,0.7,2.1,0.7c0.7,0,1.9,0.1,3.6,0.1c1.5,0,2.4-0.2,2.6-0.6c0-0.1,0.1-0.3,0.1-0.5
		c0-0.8-0.5-2.9-1.6-6.4C32.3,30.3,31.5,28.1,31,27.2z"/>
	<path id="XMLID_86_" class="st1" d="M105.9,59.2c0,0.4-0.3,0.7-0.9,0.9c-0.7,0.2-2.9,0.3-6.5,0.3c-3.4,0-5.5-0.1-6.5-0.3
		c-0.8-0.2-1.3-0.7-1.5-1.6c-0.8-3.4-1.4-5.2-1.9-5.4c-0.4-0.2-3.5-0.2-9.4-0.2c-4,0-6.1,0.1-6.4,0.3c-0.4,0.4-0.8,1.6-1.3,3.8
		c-0.4,1.9-1,3-1.6,3.2c-0.8,0.2-3.5,0.3-8,0.3c-3.6,0-5.4-0.3-5.4-1c0-0.6,2.6-8.1,7.9-22.5c5.7-15.5,8.9-24.1,9.4-25.6
		c0.3-0.9,0.6-1.3,1-1.3c0.6,0,1.6,0.1,2.9,0.2c1.3,0.1,2.3,0.2,3,0.2c0.6,0,1.6,0,2.8-0.1c1.2-0.1,2.1-0.1,2.8-0.1
		c0.4,0,0.9,0.4,1.2,1.2c1.1,2.5,4.5,10.9,10.1,25.3C103.1,51,105.9,58.6,105.9,59.2z M81,27.2c-0.5,1-1.3,3.3-2.5,6.7
		c-1.3,3.7-1.9,5.8-1.9,6.4c0,0.4,0.7,0.7,2.1,0.7c0.7,0,1.9,0.1,3.6,0.1c1.5,0,2.4-0.2,2.6-0.6c0-0.1,0.1-0.3,0.1-0.5
		c0-0.8-0.5-2.9-1.6-6.4C82.2,30.3,81.5,28.1,81,27.2z"/>
	<path id="XMLID_89_" class="st1" d="M143.7,21.5c0,0.5-0.3,0.7-0.8,0.7c-0.9,0-4.4-0.2-10.6-0.5c-0.1,5.9-0.2,10.1-0.2,12.4
		c0,2.8,0.1,6.9,0.3,12.5s0.3,9.7,0.3,12.5c0,0.4-0.1,0.7-0.3,0.8c-0.1,0-0.4,0.1-1,0.2c-1.4,0.2-3.5,0.3-6.2,0.3
		c-3,0-5.1-0.1-6.4-0.3c-0.7-0.1-1-0.5-1-1.1c0-2.8,0.1-6.9,0.4-12.4c0.2-5.5,0.4-9.7,0.4-12.4c0-1.8-0.1-5.9-0.3-12.2
		c-4.7,0.5-8.4,0.7-11.2,0.7c-0.4,0-0.6-0.1-0.6-0.4c0-0.3,0.2-1.2,0.5-2.7c0.4-1.6,0.6-2.6,0.6-3c0.1-1.1,0.2-2.2,0.2-3.3
		c0.2-1.8,0.4-2.6,0.8-2.6c0,0,0.2,0,0.5,0c3.8,0.5,9.4,0.7,16.8,0.7c2.1,0,6-0.2,11.7-0.7c3-0.2,4.6-0.4,4.6-0.4
		c0.5,0,0.7,0,0.8,0.1c0.1,0.1,0.1,0.3,0.1,0.7c0,0.6,0,1.5-0.1,2.6c0,1.2-0.1,2.1-0.1,2.6c0,0.6,0.1,1.4,0.2,2.6
		C143.6,20.1,143.7,21,143.7,21.5z"/>
</g>
</svg>
